name analog
datacolumns 19
datarows 41
range 0.0 0.02
endheader
time	ground_force_vx	ground_force_vy	ground_force_vz	ground_force_px	ground_force_py	ground_force_pz	l_ground_force_vx	l_ground_force_vy	l_ground_force_vz	l_ground_force_px	l_ground_force_py	l_ground_force_pz	ground_torque_x	ground_torque_y	ground_torque_z	l_ground_torque_x	l_ground_torque_y	l_ground_torque_z
0.0	-0.0	-0.0	-0.0	5.899062156677246	33.29571533203125	-600.0306396484375	-7.540416717529297	-19.0828914642334	-213.1107482910156	-0.0	-0.0	-0.0	-0.0	-0.0	-0.0	73375.6484375	-1344.6273193359375	-3018.991943359375
0.0005	-0.0	-0.0	-0.0	5.91599702835083	33.501800537109375	-606.6964111328125	-6.747487545013428	-18.464675903320312	-209.14181518554688	-0.0	-0.0	-0.0	-0.0	-0.0	-0.0	71510.578125	-1541.6024169921875	-2974.064453125
0.001	-0.0	-0.0	-0.0	6.518013954162598	33.0955924987793	-613.3840942382812	-6.314947605133057	-17.912893295288086	-200.8486785888672	-0.0	-0.0	-0.0	-0.0	-0.0	-0.0	69807.5390625	-1963.552734375	-2888.2900390625
0.0015	-0.0	-0.0	-0.0	6.417473316192627	34.44236373901367	-620.4921264648438	-6.298465728759766	-17.316556930541992	-196.79090881347656	-0.0	-0.0	-0.0	-0.0	-0.0	-0.0	67861.421875	-1810.771728515625	-2730.572509765625
0.002	-0.0	-0.0	-0.0	6.595858097076416	34.3209228515625	-628.1486206054688	-5.755067825317383	-16.521697998046875	-193.38616943359372	-0.0	-0.0	-0.0	-0.0	-0.0	-0.0	66412.2421875	-1948.8050537109373	-2557.535400390625
0.0025	-0.0	-0.0	-0.0	6.273464679718018	34.99380874633789	-634.2883911132812	-5.162003040313721	-16.091251373291016	-188.5638885498047	-0.0	-0.0	-0.0	-0.0	-0.0	-0.0	65262.7421875	-1993.71044921875	-2499.53759765625
0.003	-0.0	-0.0	-0.0	7.036065578460693	35.10004806518555	-640.2465209960938	-5.992932796478272	-15.47310733795166	-185.77081298828125	-0.0	-0.0	-0.0	-0.0	-0.0	-0.0	63576.16796875	-1717.2418212890625	-2611.09912109375
0.0035	-0.0	-0.0	-0.0	7.047630310058594	35.15225982666016	-643.5399780273438	-6.192760467529297	-15.516416549682615	-181.6034240722656	-0.0	-0.0	-0.0	-0.0	-0.0	-0.0	62672.4609375	-1812.4990234375	-2650.339111328125
0.004	-0.0	-0.0	-0.0	7.386936187744141	35.045772552490234	-652.3756713867188	-6.392868041992188	-14.843709945678713	-177.10946655273438	-0.0	-0.0	-0.0	-0.0	-0.0	-0.0	61439.640625	-1584.5697021484375	-3089.57080078125
0.0045000000000000005	-0.0	-0.0	-0.0	7.404472351074219	35.64040756225586	-654.7490844726562	-7.285738468170166	-14.05455207824707	-174.6434326171875	-0.0	-0.0	-0.0	-0.0	-0.0	-0.0	60778.91796875	-1172.9224853515625	-3264.135498046875
0.005	-0.0	-0.0	-0.0	7.749479293823242	35.08146286010742	-659.7401123046875	-8.032339096069336	-14.279423713684082	-173.2245635986328	-0.0	-0.0	-0.0	-0.0	-0.0	-0.0	59817.24609375	-857.9749145507812	-3676.117431640625
0.0055	-0.0	-0.0	-0.0	8.189504623413086	36.00273513793945	-663.3898315429688	-8.788166999816895	-13.607314109802246	-170.4544677734375	-0.0	-0.0	-0.0	-0.0	-0.0	-0.0	59166.796875	-791.6866455078125	-3797.007080078125
0.006	-0.0	-0.0	-0.0	8.016985893249512	36.3293571472168	-666.192138671875	-9.403343200683594	-13.56674098968506	-169.0352325439453	-0.0	-0.0	-0.0	-0.0	-0.0	-0.0	58375.67578125	-767.8916015625	-4159.203125
0.006500000000000001	-0.0	-0.0	-0.0	8.540143013000488	35.93758773803711	-669.7244262695312	-10.26700496673584	-13.324902534484863	-165.77780151367188	-0.0	-0.0	-0.0	-0.0	-0.0	-0.0	57664.359375	-289.0820617675781	-4284.26806640625
0.007	-0.0	-0.0	-0.0	8.1242094039917	35.86670684814453	-673.1370239257812	-10.556583404541016	-12.81251621246338	-163.28689575195312	-0.0	-0.0	-0.0	-0.0	-0.0	-0.0	56815.93359375	-344.5382995605469	-4432.67626953125
0.0075	-0.0	-0.0	-0.0	7.702499389648437	36.211238861083984	-675.0875244140625	-10.473796844482422	-13.1481351852417	-162.28555297851562	-0.0	-0.0	-0.0	-0.0	-0.0	-0.0	55980.0	-18.27092933654785	-4438.65380859375
0.008	-0.0	-0.0	-0.0	8.136503219604492	36.17472457885742	-675.6331787109375	-10.669134140014648	-12.65967082977295	-158.8170623779297	-0.0	-0.0	-0.0	-0.0	-0.0	-0.0	55237.72265625	260.88409423828125	-4413.0390625
0.0085	-0.0	-0.0	-0.0	8.64726734161377	35.83656692504883	-675.9620971679688	-10.568575859069824	-12.724292755126951	-157.46737670898438	-0.0	-0.0	-0.0	-0.0	-0.0	-0.0	54676.6640625	258.2138366699219	-4553.3564453125
0.009000000000000001	-0.0	-0.0	-0.0	8.77967643737793	35.913387298583984	-676.570556640625	-10.385184288024902	-12.441366195678713	-154.4435272216797	-0.0	-0.0	-0.0	-0.0	-0.0	-0.0	53875.58203125	321.75897216796875	-4436.529296875
0.0095	-0.0	-0.0	-0.0	8.665841102600098	36.18694305419922	-676.4625244140625	-10.703713417053224	-12.359004020690918	-155.60240173339844	-0.0	-0.0	-0.0	-0.0	-0.0	-0.0	53150.171875	270.00933837890625	-4294.5283203125
0.01	-0.0	-0.0	-0.0	8.755125045776367	36.28855895996094	-677.399169921875	-10.29654598236084	-11.835105895996094	-152.67520141601562	-0.0	-0.0	-0.0	-0.0	-0.0	-0.0	52591.015625	508.5307922363281	-4424.15673828125
0.0105	-0.0	-0.0	-0.0	9.246526718139648	35.99614715576172	-678.2296142578125	-10.125263214111328	-11.841196060180664	-149.28033447265625	-0.0	-0.0	-0.0	-0.0	-0.0	-0.0	51753.4921875	292.44384765625	-4364.6865234375
0.011	-0.0	-0.0	-0.0	9.207612037658691	35.8430290222168	-676.9959716796875	-9.758186340332031	-11.51857566833496	-148.5347442626953	-0.0	-0.0	-0.0	-0.0	-0.0	-0.0	51193.41015625	432.9316711425781	-4311.1513671875
0.0115	-0.0	-0.0	-0.0	8.74897575378418	36.09781646728516	-676.112060546875	-9.694232940673828	-11.506467819213867	-146.59495544433594	-0.0	-0.0	-0.0	-0.0	-0.0	-0.0	50601.890625	199.25149536132807	-4173.130859375
0.012	-0.0	-0.0	-0.0	8.42402458190918	35.64579391479492	-678.5090942382812	-9.308416366577148	-11.424440383911133	-144.8734588623047	-0.0	-0.0	-0.0	-0.0	-0.0	-0.0	50327.515625	378.3606262207031	-3969.388916015625
0.0125	-0.0	-0.0	-0.0	8.825431823730469	35.40398025512695	-677.7777099609375	-8.959789276123047	-11.463147163391112	-143.47671508789062	-0.0	-0.0	-0.0	-0.0	-0.0	-0.0	49677.87109375	-205.80995178222656	-3984.26513671875
0.013000000000000001	-0.0	-0.0	-0.0	8.851175308227539	35.391212463378906	-675.9354248046875	-8.547673225402832	-11.380977630615234	-141.87928771972656	-0.0	-0.0	-0.0	-0.0	-0.0	-0.0	49082.8515625	253.20738220214844	-3803.864501953125
0.0135	-0.0	-0.0	-0.0	8.908088684082031	34.6846809387207	-673.3662719726562	-8.091652870178223	-11.330360412597656	-142.07981872558594	-0.0	-0.0	-0.0	-0.0	-0.0	-0.0	48726.7421875	187.0796356201172	-3797.17138671875
0.014	-0.0	-0.0	-0.0	8.398802757263184	33.82593536376953	-674.7722778320312	-8.085380554199219	-11.216854095458984	-139.93482971191406	-0.0	-0.0	-0.0	-0.0	-0.0	-0.0	48285.19140625	-399.05279541015625	-3602.19482421875
0.0145	-0.0	-0.0	-0.0	8.57075309753418	33.773887634277344	-673.8673095703125	-7.458091735839844	-11.06564235687256	-137.99029541015625	-0.0	-0.0	-0.0	-0.0	-0.0	-0.0	47940.796875	-551.8682861328125	-3430.15625
0.015	-0.0	-0.0	-0.0	8.276837348937988	32.921993255615234	-674.874755859375	-6.94512939453125	-10.876355171203612	-137.66683959960938	-0.0	-0.0	-0.0	-0.0	-0.0	-0.0	47727.43359375	-639.9302978515625	-3353.296142578125
0.0155	-0.0	-0.0	-0.0	8.283364295959473	32.608524322509766	-672.8600463867188	-6.469439029693604	-11.191174507141112	-137.48959350585938	-0.0	-0.0	-0.0	-0.0	-0.0	-0.0	47211.875	-800.8734130859375	-3126.47998046875
0.016	-0.0	-0.0	-0.0	7.939735412597656	31.57207298278809	-673.7883911132812	-6.088622093200684	-10.938977241516112	-136.81639099121094	-0.0	-0.0	-0.0	-0.0	-0.0	-0.0	47361.83203125	-1166.0029296875	-2920.689697265625
0.0165	-0.0	-0.0	-0.0	7.034271717071533	31.215660095214844	-672.5075073242188	-5.575738430023193	-10.74927806854248	-136.4412841796875	-0.0	-0.0	-0.0	-0.0	-0.0	-0.0	46903.4296875	-1312.2071533203125	-2628.033447265625
0.017	-0.0	-0.0	-0.0	7.55608606338501	30.440338134765625	-673.9203491210938	-5.082687377929688	-10.523309707641602	-134.6952667236328	-0.0	-0.0	-0.0	-0.0	-0.0	-0.0	47007.12109375	-1459.8741455078125	-2445.302978515625
0.0175	-0.0	-0.0	-0.0	6.82716703414917	30.40019989013672	-674.11376953125	-4.442118644714356	-10.503729820251465	-135.36724853515625	-0.0	-0.0	-0.0	-0.0	-0.0	-0.0	46634.81640625	-1844.3839111328125	-2303.158447265625
0.018000000000000002	-0.0	-0.0	-0.0	7.500457763671875	29.9545841217041	-673.8405151367188	-4.176022529602051	-10.52345371246338	-135.63771057128906	-0.0	-0.0	-0.0	-0.0	-0.0	-0.0	46773.109375	-2004.141845703125	-2226.021484375
0.0185	-0.0	-0.0	-0.0	7.012826919555664	29.44021224975586	-672.8346557617188	-3.4597206115722656	-10.26515293121338	-134.1526336669922	-0.0	-0.0	-0.0	-0.0	-0.0	-0.0	46784.3046875	-2417.23974609375	-2045.2239990234373
0.019	-0.0	-0.0	-0.0	7.109491348266602	28.86458778381348	-672.9715576171875	-3.282299041748047	-10.598602294921877	-133.5336151123047	-0.0	-0.0	-0.0	-0.0	-0.0	-0.0	47030.03515625	-2550.156982421875	-1791.5677490234375
0.0195	-0.0	-0.0	-0.0	6.6084513664245605	28.795988082885746	-675.8231811523438	-3.071307182312012	-10.51028060913086	-134.17991638183594	-0.0	-0.0	-0.0	-0.0	-0.0	-0.0	46782.62109375	-3102.532470703125	-1666.0401611328125
0.02	-0.0	-0.0	-0.0	6.683887481689453	28.39812660217285	-673.8946533203125	-2.463679790496826	-10.476724624633787	-135.0951385498047	-0.0	-0.0	-0.0	-0.0	-0.0	-0.0	47075.42578125	-3238.796875	-1599.50927734375
